<?xml version="1.0" encoding="UTF-8" standalone="no"?>
<!DOCTYPE svg PUBLIC "-//W3C//DTD SVG 1.1//EN" "http://www.w3.org/Graphics/SVG/1.1/DTD/svg11.dtd">
<svg width="100%" height="100%" viewBox="0 0 1080 1080" version="1.1" xmlns="http://www.w3.org/2000/svg" xmlns:xlink="http://www.w3.org/1999/xlink" xml:space="preserve" xmlns:serif="http://www.serif.com/" style="fill-rule:evenodd;clip-rule:evenodd;stroke-linejoin:round;stroke-miterlimit:2;">
    <g id="Curve" transform="matrix(1,0,0,1,0,-3)">
        <path d="M918.921,498.376C920.296,511.539 921,524.876 921,538.376C921,748.656 750.28,919.376 540,919.376C329.72,919.376 159,748.656 159,538.376C159,524.876 159.704,511.539 161.079,498.376C181.084,689.872 343.22,839.376 540,839.376C736.78,839.376 898.916,689.872 918.921,498.376ZM540,178.517C582.092,170.588 634.836,166.624 698.232,166.624C740.472,166.624 774.168,167.392 799.32,168.928C824.472,170.464 846.456,172.96 865.272,176.416C877.176,178.72 886.104,182.752 892.056,188.512C898.008,194.272 900.984,200.992 900.984,208.672C900.984,221.344 897.432,230.56 890.328,236.32C883.224,242.08 871.992,244.384 856.632,243.232C822.072,240.544 795.096,238.72 775.704,237.76C756.312,236.8 730.872,236.128 699.384,235.744C685.176,306.4 672.12,377.44 660.216,448.864C655.992,474.976 651.576,505.216 646.968,539.584C642.36,573.952 639.288,601.696 637.752,622.816C636.984,633.952 632.376,642.496 623.928,648.448C615.48,654.4 605.304,657.376 593.4,657.376C580.728,657.376 570.936,654.304 564.024,648.16C557.112,642.016 553.656,633.952 553.656,623.968C553.656,614.752 555.096,599.488 557.976,578.176C560.856,556.864 564.216,534.496 568.056,511.072C572.28,487.648 575.544,467.296 577.848,450.016C582.072,420.832 586.872,391.84 592.248,363.04C597.428,335.288 602.609,308.963 607.788,284.067C605.562,277.425 601.934,271.59 596.904,266.56C587.88,257.536 572.616,250.528 551.112,245.536C547.62,244.725 543.915,243.965 540,243.257C536.085,243.965 532.38,244.725 528.888,245.536C507.384,250.528 492.12,257.536 483.096,266.56C478.066,271.59 474.438,277.425 472.212,284.067C477.391,308.963 482.572,335.288 487.752,363.04C493.128,391.84 497.928,420.832 502.152,450.016C504.456,467.296 507.72,487.648 511.944,511.072C515.784,534.496 519.144,556.864 522.024,578.176C524.904,599.488 526.344,614.752 526.344,623.968C526.344,633.952 522.888,642.016 515.976,648.16C509.064,654.304 499.272,657.376 486.6,657.376C474.696,657.376 464.52,654.4 456.072,648.448C447.624,642.496 443.016,633.952 442.248,622.816C440.712,601.696 437.64,573.952 433.032,539.584C428.424,505.216 424.008,474.976 419.784,448.864C407.88,377.44 394.824,306.4 380.616,235.744C349.128,236.128 323.688,236.8 304.296,237.76C284.904,238.72 257.928,240.544 223.368,243.232C208.008,244.384 196.776,242.08 189.672,236.32C182.568,230.56 179.016,221.344 179.016,208.672C179.016,200.992 181.992,194.272 187.944,188.512C193.896,182.752 202.824,178.72 214.728,176.416C233.544,172.96 255.528,170.464 280.68,168.928C305.832,167.392 339.528,166.624 381.768,166.624C445.164,166.624 497.908,170.588 540,178.517Z"/>
    </g>
</svg>
